<svg xmlns="http://www.w3.org/2000/svg" xmlns:xlink="http://www.w3.org/1999/xlink" version="1.1" id="Layer_1" x="100px" y="100px" width="100%" viewBox="0 0 496 496" enable-background="new 0 0 496 496" xml:space="preserve">
<path fill="#000000" opacity="1.000000" stroke="none" d=" M335.963593,175.911560   C352.882812,187.654831 353.354492,210.718231 344.046875,225.872787   C343.126160,227.371857 341.944916,228.490189 340.039124,228.375427   C336.272064,228.148544 332.421936,229.272659 328.426086,227.706848   C328.865021,223.679794 331.179993,220.306595 331.867889,216.402649   C336.935059,187.645584 318.176056,168.998566 288.955139,171.174072   C285.316986,171.444931 285.284973,173.802841 285.288635,176.434662   C285.309113,191.096985 285.295959,205.759369 285.322327,220.421677   C285.336609,228.364685 285.361725,228.364609 277.470367,228.365265   C276.137421,228.365372 274.793335,228.254608 273.473633,228.387039   C269.675476,228.768188 268.630615,226.932953 268.665894,223.377502   C268.793091,210.549301 268.662994,197.718750 268.699219,184.889297   C268.708740,181.511475 268.206970,178.226212 267.011230,175.114838   C265.687408,171.670135 263.436249,170.876053 260.558990,173.617767   C256.980225,177.027939 254.719925,181.311935 252.940079,185.818527   C247.924622,198.517761 243.061066,211.276917 238.075699,223.988174   C237.225632,226.155640 236.840622,229.217438 232.716446,227.695892   C232.949173,223.351044 235.196655,219.603012 236.643234,215.670029   C240.205826,205.984055 244.209106,196.457458 247.650604,186.730728   C249.666809,181.032303 252.278748,175.138153 245.650787,170.007248   C243.417099,168.278107 245.767471,166.870682 247.841949,166.813263   C252.337692,166.688828 256.841095,166.612305 261.335999,166.726669   C277.808167,167.145782 294.304840,165.850296 310.761749,167.608551   C319.666992,168.559982 328.051270,170.885010 335.963593,175.911560  z"/>
<path fill="#000000" opacity="1.000000" stroke="none" d=" M149.522003,166.796356   C157.458679,166.745285 164.949646,166.699356 172.440353,166.726898   C175.813538,166.739304 177.560104,167.840546 174.759811,171.103638   C172.400620,173.852737 173.210434,176.721375 174.295151,179.544678   C179.782150,193.826157 185.322189,208.087326 190.875702,222.343140   C193.103516,228.061905 192.861862,228.453018 186.683517,228.430542   C175.988358,228.391663 175.995758,228.388657 171.954773,218.353531   C167.543625,207.399231 163.126617,196.447250 158.692902,185.502060   C156.477615,180.033325 153.525116,175.099625 148.766006,171.380463   C146.872360,169.900574 145.378311,168.096481 149.522003,166.796356  z"/>
<path fill="#000000" opacity="1.000000" stroke="none" d=" M298.824921,270.948029   C302.531799,261.712402 302.531799,261.712402 300.103790,257.563171   C299.556915,267.186157 296.073486,274.359406 290.094910,280.296814   C290.082672,272.247345 295.615845,265.597717 295.231171,256.751770   C291.156982,259.374420 286.974915,258.839417 282.782654,258.826538   C280.691956,258.820099 278.464355,259.492798 278.053955,256.814758   C277.689575,254.436844 279.408173,252.462646 281.575104,251.998245   C283.674591,251.548279 285.535400,250.793289 287.511658,250.074066   C291.957489,248.456131 293.044922,252.184464 294.019623,255.322723   C301.888275,254.196274 300.933136,245.213684 306.478882,241.644623   C308.500854,247.135757 303.089020,249.678375 302.719482,254.186646   C306.677856,254.251587 307.441467,251.022568 308.876068,248.708160   C310.353760,246.324310 310.372437,242.862671 314.282654,241.634216   C315.553772,246.914795 310.675446,249.424072 309.853241,253.602448   C312.218628,253.952911 313.962799,250.234070 316.412598,252.396103   C317.652954,254.237656 315.050537,254.842026 315.284943,256.346130   C319.846802,257.636536 321.248779,251.083527 325.337708,251.980667   C327.213104,253.667709 324.914856,254.966171 325.486145,256.294586   C327.201630,257.100891 328.600433,254.768143 330.353210,256.029999   C329.770630,258.205200 327.711487,258.792297 326.167572,258.887726   C321.473328,259.177826 316.455414,259.961914 312.109924,258.688782   C306.887024,257.158600 306.613464,259.821167 306.400116,263.188904   C305.951538,270.271118 301.453369,275.195190 297.712738,281.829865   C295.783722,277.151154 298.399200,274.378540 298.824921,270.948029  z"/>
<path fill="#000000" opacity="1.000000" stroke="none" d=" M264.482300,296.396576   C261.828735,295.994263 260.813904,294.371948 262.713379,293.092743   C268.283417,289.341705 268.625549,283.713684 268.586456,278.065613   C268.558350,274.005066 270.267609,272.673309 273.958038,272.962494   C274.453705,273.001312 274.955627,272.961334 275.454651,272.956451   C284.525452,272.867462 284.433746,272.877380 285.422882,282.003235   C285.875000,286.174377 286.839844,290.255432 290.890015,292.675201   C291.845764,293.246185 292.243469,294.092896 291.650208,295.927124   C282.943848,297.018829 273.883118,296.063782 264.482300,296.396576  z"/>
<path fill="#000000" opacity="1.000000" stroke="none" d=" M217.936157,275.832825   C215.572220,282.104858 213.264816,287.993683 211.078506,293.927155   C210.235474,296.215088 209.004517,297.466339 206.348602,297.407928   C203.858826,297.353210 202.834351,296.007080 202.064545,293.990479   C199.586472,287.499054 197.059891,281.026093 194.573608,274.601776   C200.280472,271.734833 208.634964,272.360138 212.056381,275.639496   C216.358536,272.756348 216.358536,272.756348 217.936157,275.832825  z"/>
<path fill="#000000" opacity="1.000000" stroke="none" d=" M211.424744,233.595734   C217.155869,234.683182 221.255341,232.812973 224.105499,227.253143   C224.935699,231.708282 224.423965,233.071869 221.582520,234.595642   C217.921600,236.558838 214.044937,237.161835 210.029709,235.706070   C206.253815,234.337067 204.038483,235.528473 203.245239,239.531998   C202.826538,241.645203 201.988342,243.674545 201.557007,245.786163   C199.873230,254.029358 196.413010,261.170166 188.860870,265.703430   C191.300598,268.779236 194.225449,266.352112 197.184006,267.328949   C193.725510,270.736206 189.966965,269.250488 186.639313,269.217621   C184.044373,269.191956 181.515152,267.980560 178.785995,268.853668   C177.429932,269.287476 175.910248,268.790070 175.725601,267.158112   C175.494339,265.114380 177.156357,264.833954 178.729477,264.713165   C189.453735,263.889740 194.056290,260.065582 196.925613,249.561203   C197.626465,246.995438 198.206314,244.394455 198.975876,241.850235   C199.686417,239.501144 200.576813,237.206451 201.461426,234.677933   C195.797806,231.451904 190.495514,231.585068 185.224274,234.777786   C181.405014,237.091080 181.899384,240.473343 183.478806,244.092926   C179.094086,242.928589 177.811783,239.607101 180.177444,236.013153   C183.044632,231.657288 187.572433,230.644241 192.374252,230.476196   C198.778809,230.252090 204.873154,232.024704 211.424744,233.595734  z"/>
<path fill="#000000" opacity="1.000000" stroke="none" d=" M265.900085,254.090240   C264.168182,256.678131 264.010162,259.331635 264.004974,261.792480   C262.098053,262.578552 261.567841,261.422424 261.075043,260.391205   C260.543640,259.279266 259.809998,257.971558 258.580658,258.415192   C253.002563,260.428040 247.625473,255.669632 241.912582,258.202332   C240.056427,259.025208 237.391083,258.022797 234.900940,257.841034   C234.085022,254.548584 235.683975,252.554230 238.511414,251.947556   C241.688263,251.265930 240.433044,254.656723 241.582794,256.208832   C242.519669,255.951355 243.765900,255.990295 244.342865,255.388062   C247.923416,251.650558 250.948685,251.872009 253.979492,256.106506   C254.856857,257.332336 256.666016,256.831055 257.591766,255.906189   C260.575623,252.925110 264.605438,251.162598 266.635071,246.986603   C268.251556,243.660706 269.919647,239.786636 275.010223,238.565811   C275.226227,246.085388 269.620331,249.332581 265.900085,254.090240  z"/>
<path fill="#000000" opacity="1.000000" stroke="none" d=" M193.537018,337.414612   C186.867874,337.289581 183.395355,334.185699 183.866867,329.152344   C184.349762,323.997498 187.912231,321.081055 193.092270,321.709564   C197.245514,322.213501 200.051651,324.695923 200.317383,328.731750   C200.598206,332.996674 198.867737,336.586823 193.537018,337.414612  M191.220032,335.200226   C193.871948,336.008179 195.947708,335.244324 196.557465,332.490356   C197.284592,329.206329 196.302963,326.305359 193.431274,324.256104   C191.846268,323.125000 190.362244,323.271606 189.012482,324.653595   C186.710663,327.010345 186.831955,329.678406 188.267807,332.344391   C188.789948,333.313904 189.796692,334.022400 191.220032,335.200226  z"/>
<path fill="#000000" opacity="1.000000" stroke="none" d=" M308.795715,334.437622   C311.197601,336.812927 313.286804,334.660675 315.472809,334.416260   C316.540375,336.063599 315.820190,337.027374 314.237579,337.171234   C311.938263,337.380188 309.327789,337.949982 307.347870,337.143585   C302.406342,335.130890 305.809235,330.561737 305.127777,327.208008   C304.759399,325.395142 303.678345,321.920166 307.448242,321.900208   C310.054047,321.886383 313.558655,320.083588 315.697968,324.235199   C313.084106,325.130157 309.335968,321.446106 308.856812,325.691101   C308.439758,329.386200 312.148804,326.744904 314.012482,327.774414   C314.576935,329.526855 314.566223,330.808838 311.903015,330.523987   C309.234436,330.238556 308.304382,331.657104 308.795715,334.437622  z"/>
<path fill="#000000" opacity="1.000000" stroke="none" d=" M204.340454,258.131317   C203.400696,256.259308 203.862305,254.917572 204.938034,253.718430   C205.955475,252.584274 207.044891,251.516129 208.766327,251.935043   C211.117844,252.507309 209.398865,254.458145 209.997406,255.724091   C212.074524,256.302734 213.259827,254.863403 214.638428,253.710983   C218.264420,250.679932 219.180939,251.038956 220.196045,255.755768   C221.471817,256.909851 223.052048,254.698990 224.303955,256.116730   C224.676788,258.360352 209.475571,260.142792 204.340454,258.131317  z"/>
<path fill="#000000" opacity="1.000000" stroke="none" d=" M339.638000,332.455017   C335.355408,331.394897 336.346985,336.719971 332.061462,337.374725   C334.369659,331.696594 336.357239,326.807068 338.810944,320.771027   C342.841064,326.214417 344.056702,331.500610 346.589966,336.244720   C344.030151,336.846802 344.030151,336.846802 339.638000,332.455017  z"/>
<path fill="#000000" opacity="1.000000" stroke="none" d=" M253.889099,321.715363   C255.791443,321.908875 257.845825,321.041229 258.055206,324.138458   C255.654968,324.556122 250.880142,321.374084 251.653015,327.423248   C253.267441,329.054565 254.878723,327.071106 256.531281,327.646301   C257.380524,328.820312 257.747406,330.270264 255.807770,330.436462   C253.471146,330.636719 250.878403,330.637939 251.691910,333.706421   C252.626770,337.232697 255.290939,335.288330 257.396332,334.644470   C257.789215,334.524323 258.275269,334.708923 258.777222,334.758759   C257.419006,337.631195 254.589417,338.102631 248.094452,336.571350   C248.094452,331.884521 248.094452,327.135193 248.094452,322.369904   C249.827103,321.219421 251.692841,321.854126 253.889099,321.715363  z"/>
<path fill="#000000" opacity="1.000000" stroke="none" d=" M222.325531,336.035858   C220.664917,331.264404 217.965866,327.190033 217.169250,321.716400   C222.889114,322.545044 220.737198,328.771881 224.520096,330.494904   C227.716812,328.843384 225.782166,323.413574 230.497131,321.448761   C229.383636,327.128082 226.961563,331.447937 225.245117,335.994781   C224.760284,337.279114 223.598755,337.608093 222.325531,336.035858  z"/>
<path fill="#000000" opacity="1.000000" stroke="none" d=" M279.972717,336.393494   C279.803925,333.394867 279.709473,330.738220 279.813660,328.089325   C279.919739,325.391296 279.905212,322.961945 275.552917,324.176147   C278.533173,320.954071 283.954834,320.847229 287.755371,323.651886   C280.933868,324.658905 283.904205,329.781158 283.371429,333.415192   C283.071686,335.459686 283.949371,338.266052 279.972717,336.393494  z"/>
<path fill="#000000" opacity="1.000000" stroke="none" d=" M161.164581,337.338165   C157.905334,337.688538 156.366379,336.882385 156.674164,333.575958   C156.964905,330.452362 156.760300,327.283508 156.795822,324.134827   C156.810837,322.804901 157.346252,321.827789 158.842682,321.957153   C160.116791,322.067291 160.313843,323.087952 160.313782,324.142822   C160.313690,325.468719 160.289642,326.794617 160.286102,328.120544   C160.266785,335.341949 160.267868,335.341949 167.143921,335.548096   C165.887314,338.399323 163.415329,336.909943 161.164581,337.338165  z"/>
</svg>